<svg width="1200" height="630" viewBox="0 0 1200 630" fill="none" xmlns="http://www.w3.org/2000/svg">
  <defs>
    <linearGradient id="backgroundGradient" x1="0%" y1="0%" x2="100%" y2="100%">
      <stop offset="0%" style="stop-color:#4a6a50;stop-opacity:1" />
      <stop offset="100%" style="stop-color:#3a5a40;stop-opacity:1" />
    </linearGradient>
  </defs>
  <rect width="1200" height="630" fill="url(#backgroundGradient)"/>
  <g transform="translate(552, 80) scale(3)">
    <rect width="32" height="32" rx="6" fill="#3A5A40" stroke="#F8F7F5" stroke-width="0.5"/>
    <path d="M8 12c0-2.2 1.8-4 4-4h8c2.2 0 4 1.8 4 4v8c0 2.2-1.8 4-4 4h-8c-2.2 0-4-1.8-4-4v-8z" fill="#D4AF37"/>
    <circle cx="16" cy="16" r="6" fill="#F8F7F5"/>
    <path d="M13 14c0-1.1.9-2 2-2h2c1.1 0 2 .9 2 2v4c0 1.1-.9 2-2 2h-2c-1.1 0-2-.9-2-2v-4z" fill="#3A5A40"/>
  </g>
  <text x="600" y="340" font-family="'Lora', serif" font-size="80" font-weight="500" fill="#FFFFFF" text-anchor="middle">
    Чай от Лебедика
  </text>
  <text x="600" y="420" font-family="'Inter', sans-serif" font-size="36" fill="#F5F5F5" text-anchor="middle" opacity="0.9">
    Настоящий китайский чай, отобранный вручную
  </text>
  <text x="600" y="470" font-family="'Inter', sans-serif" font-size="36" fill="#F5F5F5" text-anchor="middle" opacity="0.9">
    для ценителей
  </text>
  <rect x="450" y="540" width="300" height="3" fill="#D4AF37" rx="1.5"/>
</svg>